<svg xmlns="http://www.w3.org/2000/svg" width="64" height="64" viewBox="0 0 64 64" fill="none">
  <rect width="64" height="64" rx="14" fill="#7C3AED"/>
  <g stroke="#FFFFFF" stroke-width="3" stroke-linecap="round" stroke-linejoin="round">
    <path d="M39 10H25a3 3 0 0 0-3 3v5c0 1.7 1.3 3 3 3h14c1.7 0 3-1.3 3-3v-5c0-1.7-1.3-3-3-3Z"/>
    <path d="M22 14h-4a5 5 0 0 0-5 5v30a5 5 0 0 0 5 5h28a5 5 0 0 0 5-5V19a5 5 0 0 0-5-5h-4"/>
    <path d="M32 30v13"/>
    <path d="m26 38 6 6 6-6"/>
  </g>
</svg>
